<svg width="19" height="19" viewBox="0 0 19 19" fill="none" xmlns="http://www.w3.org/2000/svg">
    <path d="M6.099 10.556c1.036 0 1.876-.946 1.876-2.112 0-1.166-.84-2.11-1.876-2.11-1.037 0-1.877.944-1.877 2.11 0 1.165.842 2.111 1.877 2.111zm7.506-.792H10.79c-.388 0-.704.354-.704.792 0 .437.316.791.704.791h2.815c.388 0 .704-.354.704-.791 0-.438-.314-.792-.704-.792zM7.037 11.61H5.16c-1.295 0-2.345 1.181-2.345 2.639 0 .29.21.528.469.528h5.63c.259 0 .469-.237.469-.528 0-1.458-1.05-2.639-2.346-2.639zm6.568-4.486H10.79c-.388 0-.704.355-.704.792 0 .437.316.791.704.791h2.815c.388 0 .704-.354.704-.791 0-.437-.314-.792-.704-.792zm1.407-3.958H1.877C.84 3.167 0 4.112 0 5.277v10.556c0 1.166.84 2.111 1.877 2.111h13.135c1.037 0 1.877-.945 1.877-2.11V5.277c0-1.166-.842-2.111-1.877-2.111zm.47 12.666c0 .291-.211.528-.47.528H1.877c-.26 0-.47-.237-.47-.528V5.278c0-.291.21-.528.47-.528h13.135c.259 0 .47.237.47.528v10.555z" fill="#212121"/>
</svg>
