<svg width="19" height="19" viewBox="0 0 19 19" fill="none" xmlns="http://www.w3.org/2000/svg">
    <path d="M14.844 7.719a5.344 5.344 0 0 0-10.688 0c0 2.192 1.754 5.049 5.344 8.471 3.59-3.422 5.344-6.28 5.344-8.471zM9.5 17.812C5.145 13.855 2.969 10.49 2.969 7.72a6.531 6.531 0 1 1 13.062 0c0 2.77-2.176 6.136-6.531 10.093z" fill="#212121"/>
    <path d="M9.5 9.5a1.781 1.781 0 1 0 0-3.562 1.781 1.781 0 0 0 0 3.562zm0 1.188a2.969 2.969 0 1 1 0-5.938 2.969 2.969 0 0 1 0 5.938z" fill="#212121"/>
</svg>
