<svg width="19" height="19" viewBox="0 0 19 19" fill="none" xmlns="http://www.w3.org/2000/svg">
    <path fill-rule="evenodd" clip-rule="evenodd" d="M9.5 17.417c.871 0 1.584-.713 1.584-1.584H7.917c0 .871.712 1.584 1.583 1.584zm4.75-4.75V8.708c0-2.43-1.29-4.465-3.562-5.003v-.538c0-.657-.53-1.188-1.188-1.188-.657 0-1.187.53-1.187 1.188v.538C6.049 4.243 4.75 6.27 4.75 8.708v3.959L3.167 14.25v.792h12.667v-.792l-1.584-1.583zm-1.583.791H6.334v-4.75c0-1.963 1.195-3.562 3.166-3.562 1.972 0 3.167 1.599 3.167 3.562v4.75z" fill="#212121"/>
</svg>
