<svg width="19" height="19" viewBox="0 0 19 19" fill="none" xmlns="http://www.w3.org/2000/svg">
    <path d="M14.105 5.835v-3.35a.705.705 0 0 0-.704-.704H4.675a.704.704 0 0 0-.703.704v3.35L.594 8.247v9.297h16.889V8.247l-3.378-2.412zm1.889 2.732-1.89 1.235V7.218l1.89 1.35zM5.097 2.907h7.882v7.631l-2.011 1.315-1.64-.85-1.785.863-2.446-1.485V2.907zm4.214 9.356 7.046 3.653v.502H1.72v-.49l7.59-3.665zM1.72 9.648l4.614 2.801-4.614 2.228v-5.03zm10.395 2.8 4.242-2.773v4.973l-4.242-2.2zm-8.143-5.23v2.48l-1.877-1.14 1.877-1.34z" fill="#212121"/>
</svg>
